<svg xmlns="http://www.w3.org/2000/svg" xmlns:xlink="http://www.w3.org/1999/xlink" contentStyleType="text/css" data-diagram-type="CLASS" height="374px" preserveAspectRatio="none" style="width:395px;height:374px;background:#FFFFFF;" version="1.1" viewBox="0 0 395 374" width="395px" zoomAndPan="magnify"><?plantuml 1.2026.5?><defs/><g><!--class User--><g class="entity" data-qualified-name="User" data-source-line="2" id="ent0001"><rect fill="#F1F1F1" height="145.7813" rx="2.5" ry="2.5" style="stroke:#181818;stroke-width:0.5;" width="194.2939" x="84.49" y="7"/><ellipse cx="161.4319" cy="23" fill="#ADD1B2" rx="11" ry="11" style="stroke:#181818;stroke-width:1;"/><path d="M165.5413,29 L157.8225,29 L157.8225,16.6094 L165.5413,16.6094 L165.5413,18.7656 L160.2756,18.7656 L160.2756,21.4375 L165.0413,21.4375 L165.0413,23.5938 L160.2756,23.5938 L160.2756,26.8438 L165.5413,26.8438 L165.5413,29 Z " fill="#000000"/><text fill="#000000" font-family="sans-serif" font-size="14" lengthAdjust="spacing" textLength="31.9102" x="181.9319" y="27.8467">User</text><line style="stroke:#181818;stroke-width:0.5;" x1="85.49" x2="277.7839" y1="39" y2="39"/><g data-visibility-modifier="IE_MANDATORY"><ellipse cx="95.49" cy="52.6484" fill="#000000" rx="3" ry="3" style="stroke:#000000;stroke-width:1;"/></g><text fill="#000000" font-family="sans-serif" font-size="14" lengthAdjust="spacing" textLength="96.1201" x="104.49" y="55.9951">id : uuid &#171;PK&#187;</text><line style="stroke:#181818;stroke-width:1;" x1="85.49" x2="277.7839" y1="63.2969" y2="63.2969"/><text fill="#000000" font-family="sans-serif" font-size="14" lengthAdjust="spacing" textLength="106.8457" x="90.49" y="80.292">name : varchar</text><text fill="#000000" font-family="sans-serif" font-size="14" lengthAdjust="spacing" textLength="182.2939" x="90.49" y="96.5889">email : varchar &#171;UNIQUE&#187;</text><text fill="#000000" font-family="sans-serif" font-size="14" lengthAdjust="spacing" textLength="174.4736" x="90.49" y="112.8857">password_hash : varchar</text><text fill="#000000" font-family="sans-serif" font-size="14" lengthAdjust="spacing" textLength="168.0615" x="90.49" y="129.1826">email_verified : boolean</text><text fill="#000000" font-family="sans-serif" font-size="14" lengthAdjust="spacing" textLength="176.6748" x="90.49" y="145.4795">created_at : timestamptz</text></g><!--class UserRole--><g class="entity" data-qualified-name="UserRole" data-source-line="11" id="ent0002"><rect fill="#F1F1F1" height="96.8906" rx="2.5" ry="2.5" style="stroke:#181818;stroke-width:0.5;" width="145.2666" x="7" y="246.08"/><ellipse cx="44.7522" cy="262.08" fill="#ADD1B2" rx="11" ry="11" style="stroke:#181818;stroke-width:1;"/><path d="M48.8616,268.08 L41.1429,268.08 L41.1429,255.6894 L48.8616,255.6894 L48.8616,257.8456 L43.596,257.8456 L43.596,260.5175 L48.3616,260.5175 L48.3616,262.6738 L43.596,262.6738 L43.596,265.9238 L48.8616,265.9238 L48.8616,268.08 Z " fill="#000000"/><text fill="#000000" font-family="sans-serif" font-size="14" lengthAdjust="spacing" textLength="62.7061" x="63.8083" y="266.9267">UserRole</text><line style="stroke:#181818;stroke-width:0.5;" x1="8" x2="151.2666" y1="278.08" y2="278.08"/><g data-visibility-modifier="IE_MANDATORY"><ellipse cx="18" cy="291.7284" fill="#000000" rx="3" ry="3" style="stroke:#000000;stroke-width:1;"/></g><text fill="#000000" font-family="sans-serif" font-size="14" lengthAdjust="spacing" textLength="96.1201" x="27" y="295.0751">id : uuid &#171;PK&#187;</text><line style="stroke:#181818;stroke-width:1;" x1="8" x2="151.2666" y1="302.3769" y2="302.3769"/><text fill="#000000" font-family="sans-serif" font-size="14" lengthAdjust="spacing" textLength="133.2666" x="13" y="319.372">user_id : uuid &#171;FK&#187;</text><text fill="#000000" font-family="sans-serif" font-size="14" lengthAdjust="spacing" textLength="93.9668" x="13" y="335.6689">role : varchar</text></g><!--class EmailVerificationToken--><g class="entity" data-qualified-name="EmailVerificationToken" data-source-line="17" id="ent0003"><rect fill="#F1F1F1" height="129.4844" rx="2.5" ry="2.5" style="stroke:#181818;stroke-width:0.5;" width="193.3008" x="186.98" y="229.79"/><ellipse cx="201.98" cy="245.79" fill="#ADD1B2" rx="11" ry="11" style="stroke:#181818;stroke-width:1;"/><path d="M206.0894,251.79 L198.3706,251.79 L198.3706,239.3994 L206.0894,239.3994 L206.0894,241.5556 L200.8238,241.5556 L200.8238,244.2275 L205.5894,244.2275 L205.5894,246.3838 L200.8238,246.3838 L200.8238,249.6338 L206.0894,249.6338 L206.0894,251.79 Z " fill="#000000"/><text fill="#000000" font-family="sans-serif" font-size="14" lengthAdjust="spacing" textLength="161.3008" x="215.98" y="250.6367">EmailVerificationToken</text><line style="stroke:#181818;stroke-width:0.5;" x1="187.98" x2="379.2808" y1="261.79" y2="261.79"/><g data-visibility-modifier="IE_MANDATORY"><ellipse cx="197.98" cy="275.4384" fill="#000000" rx="3" ry="3" style="stroke:#000000;stroke-width:1;"/></g><text fill="#000000" font-family="sans-serif" font-size="14" lengthAdjust="spacing" textLength="96.1201" x="206.98" y="278.7851">id : uuid &#171;PK&#187;</text><line style="stroke:#181818;stroke-width:1;" x1="187.98" x2="379.2808" y1="286.0869" y2="286.0869"/><text fill="#000000" font-family="sans-serif" font-size="14" lengthAdjust="spacing" textLength="133.2666" x="192.98" y="303.082">user_id : uuid &#171;FK&#187;</text><text fill="#000000" font-family="sans-serif" font-size="14" lengthAdjust="spacing" textLength="106.791" x="192.98" y="319.3789">token : varchar</text><text fill="#000000" font-family="sans-serif" font-size="14" lengthAdjust="spacing" textLength="174.3779" x="192.98" y="335.6757">expires_at : timestamptz</text><text fill="#000000" font-family="sans-serif" font-size="14" lengthAdjust="spacing" textLength="176.6748" x="192.98" y="351.9726">created_at : timestamptz</text></g><!--link User to UserRole--><g class="link" data-entity-1="ent0001" data-entity-2="ent0002" data-link-type="crowfoot" data-source-line="25" id="lnk4"><path codeLine="25" d="M143.4998,160.393 C128.8298,190.973 123.3947,202.3105 110.3047,229.6005" fill="none" id="User-UserRole" style="stroke:#181818;stroke-width:1;"/><line style="stroke:#181818;stroke-width:1;" x1="141.6234" x2="148.8364" y1="155.0564" y2="158.5166"/><line style="stroke:#181818;stroke-width:1;" x1="140.3258" x2="147.5388" y1="157.7612" y2="161.2215"/><line style="stroke:#181818;stroke-width:1;" x1="143.4998" x2="146.96" y1="160.393" y2="153.18"/><line style="stroke:#181818;stroke-width:1;" x1="105.9799" x2="107.9298" y1="238.6169" y2="248.4249"/><line style="stroke:#181818;stroke-width:1;" x1="105.9799" x2="97.1102" y1="238.6169" y2="243.2351"/><line style="stroke:#181818;stroke-width:1;" x1="105.9799" x2="102.52" y1="238.6169" y2="245.83"/><ellipse cx="108.5748" cy="233.207" fill="none" rx="4" ry="4" style="stroke:#181818;stroke-width:1;"/><text fill="#000000" font-family="sans-serif" font-size="13" lengthAdjust="spacing" textLength="22.9785" x="131.63" y="195.8569">has</text></g><!--link User to EmailVerificationToken--><g class="link" data-entity-1="ent0001" data-entity-2="ent0003" data-link-type="crowfoot" data-source-line="26" id="lnk5"><path codeLine="26" d="M219.7709,160.3926 C231.6709,185.1926 233.6481,189.3091 245.1981,213.3991" fill="none" id="User-EmailVerificationToken" style="stroke:#181818;stroke-width:1;"/><line style="stroke:#181818;stroke-width:1;" x1="214.4341" x2="221.6468" y1="158.5168" y2="155.0559"/><line style="stroke:#181818;stroke-width:1;" x1="215.732" x2="222.9446" y1="161.2215" y2="157.7606"/><line style="stroke:#181818;stroke-width:1;" x1="219.7709" x2="216.31" y1="160.3926" y2="153.18"/><line style="stroke:#181818;stroke-width:1;" x1="249.5214" x2="258.3903" y1="222.4163" y2="227.036"/><line style="stroke:#181818;stroke-width:1;" x1="249.5214" x2="247.5697" y1="222.4163" y2="232.224"/><line style="stroke:#181818;stroke-width:1;" x1="249.5214" x2="252.98" y1="222.4163" y2="229.63"/><ellipse cx="246.9274" cy="217.006" fill="none" rx="4" ry="4" style="stroke:#181818;stroke-width:1;"/><text fill="#000000" font-family="sans-serif" font-size="13" lengthAdjust="spacing" textLength="22.9785" x="236.63" y="195.8569">has</text></g><?plantuml-src dP7TIiD048NlynH3Rmf2Ng2KWc044KHBusqOawbPpEw6sKdzQNrtPrSmXle3lSbcpvd3V9oTGx662uEFZ1Qsdk5ya1QiRuQECd9Yv1LcPI2U0GQ8Fx3F0Cx0DB20OT1ZkRozNgrKp7FzEBIapWwvRf5L88kc6nKTBs-kxieYHNeCuTbpKxKOskDOjICsMqDnruFt7Q5JgsP2eQP2KLcCfI1eUtdBtYV4Qvt_eewNVyW77Qk-cvUV9iVeY3OkAIBYVIAiKOnt6_z4BgtysJeHG59sKivBRvZ2SGD_bfDUxt38SxyVErc0LZ-nVc5FWny0?></g></svg>